# xmcd
# 
# Track frame offsets:
#     150
#     2422
#     28008
#     56847
#     86209
#     116892
#     147197
#     178301
#     204415
#     229031
#     253890
#     278686
#     303573
#     330305
# 
# Disc length: 4440
# 
# Revision: 0
# Processed by: cddbd v1.5.2PL0 Copyright (c) Steve Scherf et al.
# Submitted via: fre:ac v1.0.27
# 
DISCID=c711560e
DTITLE=Andy Weir - The Martian [CD2]
DYEAR=2011
DGENRE=Audiobook
TTITLE0=0201
TTITLE1=0202
TTITLE2=0203
TTITLE3=0204
TTITLE4=0205
TTITLE5=0206
TTITLE6=0207
TTITLE7=0208
TTITLE8=0209
TTITLE9=0210
TTITLE10=0211
TTITLE11=0212
TTITLE12=0213
TTITLE13=0214
EXTD=
EXTT0=
EXTT1=
EXTT2=
EXTT3=
EXTT4=
EXTT5=
EXTT6=
EXTT7=
EXTT8=
EXTT9=
EXTT10=
EXTT11=
EXTT12=
EXTT13=
PLAYORDER=
